<?xml version="1.0" encoding="utf-8"?>
<!-- Generator: Adobe Illustrator 22.0.0, SVG Export Plug-In . SVG Version: 6.00 Build 0)  -->
<svg version="1.1" id="Layer_1" xmlns="http://www.w3.org/2000/svg" xmlns:xlink="http://www.w3.org/1999/xlink" x="0px" y="0px"
	 viewBox="0 0 2300 792" style="enable-background:new 0 0 2300 792;" xml:space="preserve">
<style type="text/css">
	.st0{fill:#D56B3B;}
	.st1{font-family:'ArialMT';}
	.st2{font-size:374.1649px;}
	.st3{font-size:186.3582px;}
</style>
<path class="st0" d="M126.2,533.4c66.7-89.4,53.3-56.8,95.3-226.2c37.3-192.6,135-219.3,184.4-254.6
	c-49.2,101.4-73.1,209-83.4,275.2S255.8,541.1,126.2,533.4z"/>
<path class="st0" d="M65.1,414.7c-3.2-27.5-86.6-104.1,65.2-268.4c122.4-107.4,255.8-98,312.2-50.7s32.5,221.9,0,279.6
	s-92.1,176.4-298.9,135.3c35.9,13.4,190.8,96,344.2-55.4c112.9-99,112.9-287.3,17.5-366.4c-89-103.2-321.8-55.9-372.6-12.9
	c-55,41.6-141.5,99.8-132,250.4C9.4,353.7,2.3,378.6,65.1,414.7z"/>
<path class="st0" d="M165.2,493c-4.8,37.8-4.8,37.8,13.5,80C285.9,674.5,502.8,784.6,773,791.4c270.2,6.8,499-47.2,642-246.4
	c-183.5,71-171.6,129.4-548.2,167.3c-256.6,3.5-242.3-7.7-405.2-39.6C316.9,615.2,185.8,567.8,165.2,493z"/>
<path class="st0" d="M649,480.5"/>
<path class="st0" d="M1414.9,296.9c-12.8,0-10.4,11-10.4,11v379.3c0,0,0.4,9,10.4,9.7c10,0.6,14.1-13.5,14.1-13.5v-378
	C1429,305.3,1427.6,296.9,1414.9,296.9z"/>
<path class="st0" d="M1439.7,305.3l-3.6,378c0,0,1.2,12.3,16.1,13.5s17.3-11,17.3-11l4.2-380.6c0,0-3.6-9-18.8-8.4
	S1439.7,305.3,1439.7,305.3z"/>
<text transform="matrix(0.6016 0 0 1 540.7803 534.2119)" class="st0 st1 st2">akshina</text>
<text transform="matrix(0.6238 0 0 1 1492.2842 455.0488)" class="st0 st1 st3">Saving &amp; Credit</text>
<text transform="matrix(0.6238 0 0 1 1492.2842 678.6787)" class="st0 st1 st3">co-operative ltd</text>
</svg>
