<?xml version="1.0" encoding="utf-8"?>
<!-- Generator: Adobe Illustrator 22.0.0, SVG Export Plug-In . SVG Version: 6.00 Build 0)  -->
<svg version="1.1" id="Layer_1" xmlns="http://www.w3.org/2000/svg" xmlns:xlink="http://www.w3.org/1999/xlink" x="0px" y="0px"
	 viewBox="0 0 2300 792" style="enable-background:new 0 0 2300 792;" xml:space="preserve">
<style type="text/css">
	.st0{fill:#295BA9;}
	.st1{font-family:'ArialMT';}
	.st2{font-size:290px;}
	.st3{font-size:144.4387px;}
</style>
<path class="st0" d="M227.3,506.2c56-69.3,44.7-44,80-175.3c31.3-149.3,113.3-170,154.7-197.3c-41.3,78.6-61.3,162-70,213.3
	S336,512.2,227.3,506.2z"/>
<path class="st0" d="M176,414.2c-2.7-21.3-72.7-80.7,54.7-208c102.7-83.3,214.7-76,262-39.3s27.3,172,0,216.7
	c-27.3,44.7-77.3,136.7-250.8,104.9c30.1,10.4,160.1,74.4,288.8-42.9c94.7-76.7,94.7-222.7,14.7-284c-74.7-80-270-43.3-312.7-10
	c-46.1,32.2-118.7,77.3-110.7,194C129.3,366.9,123.3,386.2,176,414.2z"/>
<path class="st0" d="M260,474.9c-4,29.3-4,29.3,11.3,62c90,78.7,272,164,498.7,169.3s418.7-36.6,538.7-191
	c-154,55-144,100.3-460,129.7c-215.3,2.7-203.3-6-340-30.7C387.3,569.6,277.3,532.9,260,474.9z"/>
<path class="st0" d="M666,465.2"/>
<path class="st0" d="M1308.7,322.9c-10.7,0-8.7,8.5-8.7,8.5v294c0,0,0.3,7,8.7,7.5s11.8-10.5,11.8-10.5v-293
	C1320.5,329.4,1319.3,322.9,1308.7,322.9z"/>
<path class="st0" d="M1329.5,329.4l-3,293c0,0,1,9.5,13.5,10.5s14.5-8.5,14.5-8.5l3.5-295c0,0-3-7-15.8-6.5
	S1329.5,329.4,1329.5,329.4z"/>
<text transform="matrix(0.6513 0 0 1 575.1758 506.834)" class="st0 st1 st2">akshina</text>
<text transform="matrix(0.6754 0 0 1 1373.6152 445.4775)" class="st0 st1 st3">Saving &amp; Credit</text>
<text transform="matrix(0.6754 0 0 1 1373.6152 618.8037)" class="st0 st1 st3">co-operative ltd</text>
</svg>
